HIERARCHY
ROOT joint_Root
{
	OFFSET 0.0 0.0 0.0
	CHANNELS 6 Xposition Yposition Zposition Zrotation Xrotation Yrotation 
	JOINT Hips
	{
		OFFSET 4.5925 91.4895 -427.239
		CHANNELS 6 Xposition Yposition Zposition Zrotation Xrotation Yrotation 
		JOINT Spine
		{
			OFFSET 15.7357 0.0 0.0
			CHANNELS 6 Xposition Yposition Zposition Zrotation Xrotation Yrotation 
			JOINT Chest
			{
				OFFSET 8.98455 -0.406207 0.0
				CHANNELS 6 Xposition Yposition Zposition Zrotation Xrotation Yrotation 
				JOINT Neck
				{
					OFFSET 16.3773 0.0 0.0
					CHANNELS 6 Xposition Yposition Zposition Zrotation Xrotation Yrotation 
					JOINT Head
					{
						OFFSET 6.45672 0.0 0.0
						CHANNELS 6 Xposition Yposition Zposition Zrotation Xrotation Yrotation 
						End Site
						{
							OFFSET 0.0 0.0 0.0
						}
					}
				}
				JOINT Shoulder_L
				{
					OFFSET 12.9942 -0.242716 4.98039
					CHANNELS 6 Xposition Yposition Zposition Zrotation Xrotation Yrotation 
					JOINT UpperArm_L
					{
						OFFSET 5.34809 0.0 0.0
						CHANNELS 6 Xposition Yposition Zposition Zrotation Xrotation Yrotation 
						JOINT LowerArm_L
						{
							OFFSET 24.3286 1.87007e-05 0.0
							CHANNELS 6 Xposition Yposition Zposition Zrotation Xrotation Yrotation 
							JOINT Hand_L
							{
								OFFSET 22.2916 0.0 0.0
								CHANNELS 6 Xposition Yposition Zposition Zrotation Xrotation Yrotation 
								End Site
								{
									OFFSET 0.0 0.0 0.0
								}
							}
						}
					}
				}
				JOINT Shoulder_R
				{
					OFFSET 12.9945 -0.242716 -4.98039
					CHANNELS 6 Xposition Yposition Zposition Zrotation Xrotation Yrotation 
					JOINT UpperArm_R
					{
						OFFSET -5.34813 0.0 0.0
						CHANNELS 6 Xposition Yposition Zposition Zrotation Xrotation Yrotation 
						JOINT LowerArm_R
						{
							OFFSET -24.3289 0.000322201 0.0
							CHANNELS 6 Xposition Yposition Zposition Zrotation Xrotation Yrotation 
							JOINT Hand_R
							{
								OFFSET -22.2915 -0.000108084 0.0
								CHANNELS 6 Xposition Yposition Zposition Zrotation Xrotation Yrotation 
								End Site
								{
									OFFSET 0.0 0.0 0.0
								}
							}
						}
					}
				}
			}
		}
		JOINT UpperLeg_L
		{
			OFFSET -2.19248 -6.46944 0.0
			CHANNELS 6 Xposition Yposition Zposition Zrotation Xrotation Yrotation 
			JOINT LowerLeg_L
			{
				OFFSET 39.0811 0.0 -1.23785e-05
				CHANNELS 6 Xposition Yposition Zposition Zrotation Xrotation Yrotation 
				JOINT Foot_L
				{
					OFFSET 40.9854 0.0 -1.26872e-05
					CHANNELS 6 Xposition Yposition Zposition Zrotation Xrotation Yrotation 
					JOINT Toes_L
					{
						OFFSET 11.7543 0.0 0.0
						CHANNELS 6 Xposition Yposition Zposition Zrotation Xrotation Yrotation 
						End Site
						{
							OFFSET 0.0 0.0 0.0
						}
					}
				}
			}
		}
		JOINT UpperLeg_R
		{
			OFFSET -2.19251 6.46944 0.0
			CHANNELS 6 Xposition Yposition Zposition Zrotation Xrotation Yrotation 
			JOINT LowerLeg_R
			{
				OFFSET -39.0811 -0.00228153 -0.0401928
				CHANNELS 6 Xposition Yposition Zposition Zrotation Xrotation Yrotation 
				JOINT Foot_R
				{
					OFFSET -40.9854 0.0 0.0
					CHANNELS 6 Xposition Yposition Zposition Zrotation Xrotation Yrotation 
					JOINT Toes_R
					{
						OFFSET -11.7543 0.0 0.0
						CHANNELS 6 Xposition Yposition Zposition Zrotation Xrotation Yrotation 
						End Site
						{
							OFFSET 0.0 0.0 0.0
						}
					}
				}
			}
		}
	}
}
MOTION
Frames:	5
Frame Time:	0.0333333
0.000000 0.000000 0.000000 0.000000 0.000000 -0.000000 -0.529884 90.703800 -2.108930 89.576000 -3.971910 11.564700 15.735700 0.000005 -0.000001 87.540900 79.219700 -88.103400 8.984550 -0.406207 -0.000000 13.771500 -0.944102 -1.011270 16.377300 -0.000001 -0.000001 9.050250 -3.494630 2.600830 6.456720 -0.000001 -0.000000 -3.489900 -3.078220 1.148380 12.994200 -0.242716 4.980390 -91.115600 5.306040 -78.108900 5.348090 -0.000007 -0.000001 -59.480900 36.941700 -23.976700 24.328600 0.000019 0.000005 9.934380 22.274700 -24.800100 22.291600 -0.000001 0.000005 9.930610 5.300260 0.065102 12.994500 -0.242716 -4.980390 89.185000 10.494400 -85.534400 -5.348130 -0.000001 -0.000004 -59.416200 35.103000 -18.990700 -24.328900 0.000322 -0.000009 3.343960 6.097400 -28.822300 -22.291500 -0.000108 -0.000004 15.151800 5.435040 -4.112980 -2.192480 -6.469440 -0.000000 -175.060000 -13.608100 -0.923878 39.081100 -0.000007 -0.000012 -0.168286 0.266931 32.229500 40.985400 -0.000006 -0.000013 1.040480 4.975040 -69.536200 11.754300 -0.000000 0.000003 -0.000175 -0.001658 -16.640300 -2.192510 6.469440 -0.000001 173.850000 20.038400 -179.399000 -39.081100 -0.002282 -0.040193 -0.206180 0.342647 31.440000 -40.985400 0.000008 0.000006 4.259400 15.436200 -70.283900 -11.754300 -0.000006 -0.000006 -0.002484 -0.034614 -17.980700
0.000000 0.000000 0.000000 0.000000 0.000000 -0.000000 -0.542708 90.701000 -2.129210 89.585500 -3.955930 11.583300 15.735700 0.000005 -0.000001 87.579200 79.169400 -88.157600 8.984550 -0.406207 -0.000000 13.872600 -0.935285 -1.043290 16.377300 -0.000001 -0.000001 9.191270 -3.505270 2.605560 6.456720 -0.000001 -0.000000 -3.463400 -3.091760 1.171810 12.994200 -0.242716 4.980390 -91.117100 5.321850 -78.127800 5.348090 -0.000007 -0.000001 -59.350100 36.485700 -24.098300 24.328600 0.000019 0.000005 10.165600 21.731500 -25.839900 22.291600 -0.000001 0.000005 10.156300 5.302510 0.001831 12.994500 -0.242716 -4.980390 89.166200 10.542400 -85.452300 -5.348130 -0.000001 -0.000004 -59.146600 34.720700 -19.251900 -24.328900 0.000322 -0.000009 3.671500 6.305060 -30.304500 -22.291500 -0.000108 -0.000004 15.430700 5.437870 -4.211240 -2.192480 -6.469440 -0.000000 -175.058000 -13.602800 -0.933938 39.081100 -0.000007 -0.000012 -0.167790 0.265984 32.245100 40.985400 -0.000006 -0.000013 1.029510 4.970540 -69.521600 11.754300 -0.000000 0.000003 -0.000189 -0.001768 -16.644400 -2.192510 6.469440 -0.000001 173.841000 20.083200 -179.400000 -39.081100 -0.002282 -0.040193 -0.202878 0.336895 31.466500 -40.985400 0.000008 0.000006 4.289550 15.468100 -70.295600 -11.754300 -0.000006 -0.000006 -0.002539 -0.035267 -18.007200
0.000000 0.000000 0.000000 0.000000 0.000000 -0.000000 -0.557461 90.704000 -2.124770 89.573200 -3.956950 11.639500 15.735700 0.000005 -0.000001 87.573800 79.101400 -88.162400 8.984550 -0.406207 -0.000000 14.008400 -0.944056 -1.061730 16.377300 -0.000001 -0.000001 9.356330 -3.483770 2.610710 6.456720 -0.000001 -0.000000 -3.477700 -3.068130 1.161930 12.994200 -0.242716 4.980390 -91.133700 5.364600 -78.049100 5.348090 -0.000007 -0.000001 -59.213000 35.769400 -24.259100 24.328600 0.000019 0.000005 10.654300 21.396100 -27.279100 22.291600 -0.000001 0.000005 10.072800 5.302660 -0.002321 12.994500 -0.242716 -4.980390 89.157900 10.545400 -85.408100 -5.348130 -0.000001 -0.000004 -58.822800 34.355400 -19.625300 -24.328900 0.000322 -0.000009 4.064860 6.544970 -31.948900 -22.291500 -0.000108 -0.000004 15.715200 5.440520 -4.303980 -2.192480 -6.469440 -0.000000 -175.009000 -13.594900 -0.863565 39.081100 -0.000007 -0.000012 -0.169941 0.269544 32.230800 40.985400 -0.000006 -0.000013 1.023500 5.018710 -69.516000 11.754300 -0.000000 0.000003 -0.000179 -0.001683 -16.641200 -2.192510 6.469440 -0.000001 173.821000 20.115600 -179.312000 -39.081100 -0.002282 -0.040193 -0.206763 0.343633 31.437500 -40.985400 0.000008 0.000006 4.301240 15.503000 -70.292800 -11.754300 -0.000006 -0.000006 -0.002529 -0.035153 -18.002600
0.000000 0.000000 0.000000 0.000000 0.000000 -0.000000 -0.574657 90.703000 -2.126100 89.586700 -3.932450 11.661400 15.735700 0.000005 -0.000001 87.605600 79.044900 -88.209100 8.984550 -0.406207 -0.000000 14.121700 -0.938020 -1.091340 16.377300 -0.000001 -0.000001 9.443950 -3.466670 2.627370 6.456720 -0.000001 -0.000000 -3.434690 -3.058480 1.083660 12.994200 -0.242716 4.980390 -91.151800 5.432270 -78.010300 5.348090 -0.000007 -0.000001 -58.959200 35.000000 -24.535200 24.328600 0.000019 0.000005 11.125600 20.869500 -28.900100 22.291600 -0.000001 0.000005 10.397300 5.302970 -0.011020 12.994500 -0.242716 -4.980390 89.149400 10.523900 -85.352600 -5.348130 -0.000001 -0.000004 -58.539000 33.909400 -19.992900 -24.328900 0.000322 -0.000009 4.471830 6.732130 -33.715200 -22.291500 -0.000108 -0.000004 15.983900 5.441540 -4.339730 -2.192480 -6.469440 -0.000000 -175.012000 -13.604700 -0.841035 39.081100 -0.000007 -0.000012 -0.167140 0.265133 32.227700 40.985400 -0.000006 -0.000013 1.024120 5.036740 -69.512900 11.754300 -0.000000 0.000003 -0.000191 -0.001782 -16.644900 -2.192510 6.469440 -0.000001 173.793000 20.183000 -179.286000 -39.081100 -0.002282 -0.040193 -0.206070 0.342331 31.450200 -40.985400 0.000008 0.000006 4.324810 15.529400 -70.308300 -11.754300 -0.000006 -0.000006 -0.002705 -0.037219 -18.086600
0.000000 0.000000 0.000000 0.000000 0.000000 -0.000000 -0.589948 90.703900 -2.150940 89.582800 -3.864140 11.654000 15.735700 0.000005 -0.000001 87.598400 79.000700 -88.217900 8.984550 -0.406207 -0.000000 14.209800 -0.945612 -1.121650 16.377300 -0.000001 -0.000001 9.438270 -3.470410 2.722850 6.456720 -0.000001 -0.000000 -3.321890 -3.010010 0.988882 12.994200 -0.242716 4.980390 -91.170000 5.482310 -77.933200 5.348090 -0.000007 -0.000001 -58.455400 34.395100 -25.070900 24.328600 0.000019 0.000005 11.533200 20.140900 -30.651600 22.291600 -0.000001 0.000005 10.796700 5.303900 -0.037411 12.994500 -0.242716 -4.980390 89.139900 10.546900 -85.311000 -5.348130 -0.000001 -0.000004 -58.248300 33.347300 -20.346600 -24.328900 0.000322 -0.000009 5.019990 7.039150 -35.638200 -22.291500 -0.000108 -0.000004 16.337100 5.443260 -4.400210 -2.192480 -6.469440 -0.000000 -175.018000 -13.522400 -0.878872 39.081100 -0.000007 -0.000012 -0.169967 0.269571 32.232200 40.985400 -0.000006 -0.000013 1.008390 5.024390 -69.491000 11.754300 -0.000000 0.000003 -0.000181 -0.001700 -16.641900 -2.192510 6.469440 -0.000001 173.794000 20.281500 -179.299000 -39.081100 -0.002282 -0.040193 -0.203377 0.337907 31.451700 -40.985400 0.000008 0.000006 4.345260 15.548200 -70.300700 -11.754300 -0.000006 -0.000006 -0.002502 -0.034832 -17.989500
